<svg width="18" height="18" viewBox="0 0 18 18" fill="none" xmlns="http://www.w3.org/2000/svg">
<g clip-path="url(#clip0_2050_2296)">
<path d="M7.875 3.75H14.25C14.6478 3.75 15.0294 3.90804 15.3107 4.18934C15.592 4.47064 15.75 4.85218 15.75 5.25V11.625" stroke="white" stroke-width="1.5" stroke-linecap="round" stroke-linejoin="round"/>
<path d="M12.75 8.25H12.375" stroke="white" stroke-width="1.5" stroke-linecap="round" stroke-linejoin="round"/>
<path d="M14.25 14.25H3.75C3.35218 14.25 2.97064 14.092 2.68934 13.8107C2.40804 13.5294 2.25 13.1478 2.25 12.75V5.25C2.25 4.85218 2.40804 4.47064 2.68934 4.18934C2.97064 3.90804 3.35218 3.75 3.75 3.75" stroke="white" stroke-width="1.5" stroke-linecap="round" stroke-linejoin="round"/>
<path d="M1.5 1.5L16.5 16.5" stroke="white" stroke-width="1.5" stroke-linecap="round" stroke-linejoin="round"/>
<path d="M5.25 8.25H8.25" stroke="white" stroke-width="1.5" stroke-linecap="round" stroke-linejoin="round"/>
<path d="M5.25 11.25H7.125" stroke="white" stroke-width="1.5" stroke-linecap="round" stroke-linejoin="round"/>
</g>
<defs>
<clipPath id="clip0_2050_2296">
<rect width="18" height="18" fill="white"/>
</clipPath>
</defs>
</svg>
